<?xml version="1.0" standalone="no"?>
<!DOCTYPE svg PUBLIC "-//W3C//DTD SVG 20010904//EN"
 "http://www.w3.org/TR/2001/REC-SVG-20010904/DTD/svg10.dtd">
<svg version="1.0" xmlns="http://www.w3.org/2000/svg"
 width="991.000000pt" height="991.000000pt" viewBox="0 0 991.000000 991.000000"
 preserveAspectRatio="xMidYMid meet">
<metadata>
Created by potrace 1.14, written by Peter Selinger 2001-2017
</metadata>
<g transform="translate(0.000000,991.000000) scale(0.100000,-0.100000)"
fill="#000000" stroke="none">
<path d="M7635 9586 c-103 -32 -177 -95 -219 -185 -16 -36 -21 -65 -21 -137 0
-82 3 -97 31 -151 l31 -61 -212 -218 -213 -219 26 -23 25 -24 91 95 c180 187
215 223 273 280 l59 58 64 -33 c58 -30 71 -33 154 -33 79 0 98 4 143 27 76 39
119 83 156 157 28 58 32 75 31 146 -1 96 -30 168 -94 234 -80 82 -220 119
-325 87z m220 -90 c190 -112 173 -387 -28 -476 -81 -36 -188 -26 -251 23 -19
14 -14 20 87 123 71 73 107 117 107 132 0 12 -2 22 -4 22 -2 0 -11 3 -20 6
-11 4 -49 -28 -124 -107 -61 -62 -114 -109 -120 -105 -13 8 -40 88 -45 136 -7
66 33 165 88 213 57 50 113 68 198 62 50 -3 80 -11 112 -29z"/>
<path d="M6580 8774 c0 0 7 -21 15 -45 17 -49 14 -48 117 -40 9 0 21 15 27 32
20 58 19 59 -74 56 -47 -1 -85 -2 -85 -3z"/>
<path d="M6357 8582 l-178 -178 -137 4 c-246 8 -1748 7 -2132 -2 -526 -11
-824 -20 -985 -31 -38 -2 -133 -7 -210 -10 -77 -3 -156 -8 -175 -10 -19 -2
-78 -7 -130 -10 -52 -3 -112 -8 -132 -11 -21 -2 -57 -6 -80 -9 -24 -3 -65 -7
-93 -11 -110 -12 -228 -36 -263 -52 -20 -9 -38 -17 -39 -17 -1 0 -4 -12 -8
-26 -5 -21 10 -44 102 -155 59 -71 160 -192 223 -269 63 -77 122 -149 132
-160 31 -38 213 -260 238 -292 14 -17 73 -89 132 -159 59 -71 218 -264 354
-429 136 -165 264 -320 284 -345 21 -25 82 -99 136 -165 54 -66 101 -122 104
-125 3 -3 66 -79 140 -170 74 -91 142 -174 151 -185 50 -60 266 -323 281 -340
24 -29 492 -595 677 -820 87 -104 170 -207 187 -227 l29 -38 2 -1760 2 -1760
-87 -1 c-139 -2 -229 -6 -347 -13 -60 -4 -135 -9 -165 -11 -30 -2 -80 -7 -110
-10 -110 -13 -266 -34 -290 -40 -14 -3 -51 -10 -84 -16 -32 -5 -96 -21 -143
-35 -208 -60 -287 -140 -228 -231 37 -55 221 -129 395 -158 19 -3 58 -10 85
-15 73 -14 103 -18 170 -25 33 -3 71 -8 85 -10 23 -4 149 -14 250 -21 77 -5
891 -4 965 1 141 9 371 31 425 40 14 3 59 9 101 15 258 36 470 114 511 188 61
114 -136 215 -537 276 -16 2 -48 7 -70 10 -47 8 -84 12 -185 22 -41 3 -88 8
-105 10 -67 6 -383 21 -495 23 l-76 1 3 1773 c1 974 2 1775 2 1779 1 5 110
140 286 353 38 46 281 340 330 400 57 70 206 249 224 270 9 11 53 65 98 120
87 107 373 457 401 490 32 39 103 125 222 270 45 55 89 109 98 120 10 11 55
67 102 125 47 58 102 124 124 147 21 23 46 53 54 65 14 19 118 149 180 223 10
11 68 83 131 160 62 77 122 148 133 157 11 10 30 34 44 53 21 31 329 411 344
425 3 3 44 52 90 110 47 58 91 111 98 119 8 8 39 46 70 85 31 39 63 77 70 84
61 65 27 117 -90 137 -18 3 -40 8 -48 10 -8 2 -35 7 -60 10 -25 3 -61 8 -80
10 -19 2 -57 7 -85 10 -27 2 -72 7 -100 10 -27 3 -84 7 -125 10 -184 11 -259
16 -310 20 l-55 5 -192 192 c-106 106 -195 189 -198 186 -3 -3 -8 -21 -11 -39
-4 -33 2 -41 174 -212 167 -167 180 -177 204 -168 18 7 29 6 37 -2 20 -20 12
-35 -24 -41 -33 -7 -35 -9 -36 -49 0 -23 -2 -49 -4 -58 -2 -11 10 -23 36 -34
21 -10 39 -22 39 -27 0 -4 -31 -8 -70 -8 -48 0 -69 4 -67 12 1 6 -15 18 -36
26 -37 15 -39 14 -66 -12 -25 -24 -91 -47 -91 -32 0 3 20 26 45 52 26 27 45
55 45 68 0 16 -39 62 -131 152 -71 71 -132 130 -133 132 -2 2 -14 5 -28 7 -20
4 -58 -30 -243 -215 -189 -189 -224 -220 -250 -220 -27 0 -11 19 198 228 148
148 227 234 227 247 -1 11 -7 33 -13 49 l-13 29 -257 -258 -258 -259 33 -18
c36 -19 35 -19 -32 -22 -27 -1 -57 5 -75 15 -16 9 -40 20 -52 24 -19 5 -23 3
-23 -17 l0 -23 -433 1 c-237 1 -438 2 -444 2 -10 2 -13 36 -13 137 l0 135 353
-4 c193 -2 437 -5 542 -5 l190 -1 -88 -88 -89 -89 29 -11 c15 -6 33 -13 40
-14 6 -2 135 119 285 269 l274 272 -16 40 -16 41 -177 -178z m-1403 -369 c1
-80 -3 -134 -9 -136 -31 -11 -1287 9 -1735 27 -74 3 -193 8 -265 11 -71 3
-164 7 -205 10 -41 2 -124 7 -185 10 -60 4 -121 8 -135 10 -14 2 -65 7 -115
10 -49 3 -110 7 -135 10 -25 3 -63 7 -85 10 -84 9 -175 29 -175 37 0 4 2 8 4
8 2 0 25 4 52 9 27 5 74 12 104 16 30 3 71 8 90 10 19 2 71 7 115 10 44 3 100
7 125 10 109 11 310 23 485 30 454 18 538 20 955 30 168 4 306 8 307 9 1 0
182 1 404 1 l402 0 1 -132z m2446 73 c264 -17 351 -24 390 -31 14 -2 54 -7 90
-10 85 -8 170 -26 170 -37 0 -4 -6 -8 -12 -9 -7 0 -21 -2 -31 -4 -53 -10 -158
-25 -202 -30 -131 -13 -195 -17 -400 -29 -60 -4 -126 -9 -145 -12 l-35 -4 3
88 3 89 32 -2 c18 -1 79 -5 137 -9z m629 -163 c-22 -29 -92 -116 -115 -143
-12 -14 -58 -70 -103 -125 -45 -55 -90 -109 -99 -120 -15 -17 -291 -353 -298
-364 -2 -2 -18 6 -36 17 -125 80 -373 177 -523 207 -44 9 -85 18 -92 20 -7 2
84 100 203 218 l214 214 83 8 c45 4 98 9 117 10 19 2 80 6 135 10 55 3 111 8
125 10 14 2 61 6 105 10 44 4 87 8 95 10 8 1 40 6 70 10 83 10 114 16 119 21
12 11 12 2 0 -13z m-6004 -8 c28 -3 61 -8 75 -10 14 -2 57 -6 95 -10 39 -3 88
-8 110 -10 22 -2 85 -7 140 -10 55 -4 118 -8 140 -10 22 -2 105 -7 185 -10 80
-4 172 -8 205 -10 33 -2 146 -6 250 -10 105 -4 228 -8 275 -10 119 -5 1002
-18 1247 -19 173 -1 203 -3 204 -16 7 -103 2 -626 -6 -635 -25 -32 -500 -145
-710 -170 -27 -4 -57 -8 -65 -10 -58 -16 -479 -24 -601 -11 -30 3 -92 8 -139
11 -47 3 -101 8 -120 11 -122 17 -248 35 -266 38 -12 3 -38 7 -59 10 -102 16
-340 87 -398 117 -21 12 -90 90 -221 253 -17 21 -35 43 -41 50 -17 19 -149
179 -195 236 -25 30 -47 57 -50 60 -10 9 -126 155 -134 169 -6 10 -4 12 10 8
11 -3 42 -8 69 -12z m5024 -82 c-8 -9 -101 -102 -207 -207 -174 -173 -222
-211 -237 -186 -2 3 87 97 198 207 161 159 208 200 231 201 25 2 27 0 15 -15z
m-344 -163 c-93 -94 -168 -176 -166 -183 13 -45 13 -47 -6 -44 -10 1 -29 13
-41 25 -23 23 -42 22 -42 -4 0 -8 -10 -14 -26 -14 -23 0 -25 3 -20 26 6 24 -6
40 -120 154 -70 70 -132 127 -138 126 -42 -8 -76 -18 -76 -23 0 -3 61 -67 135
-141 74 -74 135 -138 135 -142 0 -4 -8 -10 -19 -13 -14 -3 -55 32 -162 140
-127 127 -147 143 -169 137 -14 -4 -31 -7 -37 -7 -7 0 -13 -2 -13 -4 0 -3 58
-63 130 -136 71 -72 128 -133 125 -135 -2 -2 -28 -6 -57 -8 -51 -4 -227 -29
-278 -39 -63 -12 -77 -15 -100 -19 -125 -21 -377 -89 -585 -158 -49 -16 -102
-33 -118 -38 l-27 -9 2 322 3 321 443 3 442 4 0 -29 c0 -39 4 -41 50 -28 31 8
40 15 40 32 0 15 7 23 25 26 13 3 23 2 20 -1 -2 -4 0 -12 4 -19 5 -9 16 -9 44
0 20 6 37 15 37 20 0 4 9 8 20 8 11 0 20 -6 20 -13 0 -22 263 -275 290 -279
21 -3 51 23 183 154 138 139 161 158 190 158 31 0 25 -7 -138 -170z m-189
-303 c4 -4 -16 -7 -44 -7 l-51 0 -11 -41 c-6 -23 -10 -43 -8 -45 5 -4 67 -7
126 -5 48 1 50 6 23 61 l-19 40 24 0 c18 0 28 -9 41 -37 10 -21 18 -40 19 -41
1 -2 17 10 35 27 17 17 38 31 46 31 30 0 172 -32 248 -57 86 -27 296 -125 313
-146 8 -10 -92 -12 -500 -12 -346 0 -515 -3 -522 -10 -7 -6 -54 -10 -116 -10
-98 1 -105 2 -103 21 1 10 5 48 8 84 l5 65 -18 -40 c-10 -22 -26 -59 -36 -83
-12 -28 -26 -44 -43 -48 -13 -4 -26 -5 -28 -3 -5 6 85 212 99 226 12 12 48 18
176 28 l85 7 40 -41 c22 -22 43 -41 46 -41 4 0 10 17 14 37 4 21 8 40 10 43 5
8 133 5 141 -3z m-701 -106 c-61 -38 -136 -86 -168 -106 -38 -24 -73 -38 -103
-41 -24 -2 -44 -1 -44 1 0 3 17 16 38 29 278 178 287 183 357 185 24 1 10 -11
-80 -68z m-565 -126 l23 -24 -37 3 c-20 2 -44 10 -53 17 -14 12 -13 14 8 20
13 4 27 7 30 8 3 1 16 -10 29 -24z m-100 -13 c0 -5 -7 -9 -15 -9 -8 0 -15 4
-15 9 0 4 7 8 15 8 8 0 15 -4 15 -8z m-281 -89 c-13 -15 -43 -48 -65 -73 -23
-25 -59 -65 -80 -89 -22 -24 -52 -58 -69 -75 -29 -32 -162 -177 -218 -240
l-29 -31 -65 70 c-35 39 -114 121 -175 183 -60 62 -108 115 -106 117 1 1 44 6
93 10 50 4 92 8 95 10 3 2 28 6 55 9 28 4 57 9 65 11 8 2 33 6 55 10 22 3 69
13 105 21 36 9 74 17 85 20 11 2 74 19 140 38 149 42 143 41 114 9z m265 -24
c0 -40 -7 -103 -20 -199 -7 -53 -12 -89 -20 -155 -4 -33 -8 -67 -10 -75 -1 -8
-3 -20 -3 -27 -1 -6 -9 -10 -18 -8 -10 2 -21 4 -25 4 -4 1 -8 113 -8 250 l1
250 27 3 c71 9 77 5 76 -43z m268 40 c58 13 76 1 38 -24 -17 -11 -29 -23 -27
-26 1 -3 38 -37 82 -75 44 -37 82 -71 85 -74 3 -3 36 -32 73 -64 64 -56 68
-58 82 -40 8 10 15 23 15 27 0 5 13 36 28 70 16 34 42 91 57 127 16 36 32 70
37 76 8 11 48 8 48 -4 0 -5 -97 -224 -131 -296 -25 -53 -24 -59 14 -89 47 -38
123 -107 117 -108 -45 -9 -64 -3 -108 34 -26 23 -55 47 -64 55 -16 13 -22 12
-55 -11 -95 -63 -129 -80 -170 -82 -46 -3 -55 4 -23 20 11 6 59 34 106 64 l87
54 -39 35 c-21 19 -55 49 -74 66 -19 17 -73 64 -118 105 -48 43 -87 70 -92 65
-4 -5 -27 -52 -50 -104 -125 -283 -136 -305 -159 -307 -29 -2 -27 13 12 99 19
40 63 138 97 217 l64 143 -28 21 c-26 19 -27 21 -10 28 10 3 29 2 42 -2 13 -5
41 -5 64 0z m1897 -5 c-1 -7 -205 -265 -244 -308 -6 -6 -41 -48 -78 -93 l-69
-83 -343 0 c-189 0 -346 -3 -349 -8 -2 -4 -64 -7 -138 -7 -126 0 -133 1 -131
20 3 40 34 301 39 325 2 14 7 55 10 92 6 63 8 67 33 70 68 8 1271 0 1270 -8z
m-4492 -39 c50 -13 129 -31 175 -39 46 -8 94 -17 108 -20 14 -2 68 -10 120
-16 52 -6 109 -13 126 -15 17 -3 71 -7 120 -11 49 -3 107 -7 129 -9 22 -2 52
-4 67 -4 l27 -1 -2 -182 -2 -183 -291 -3 -291 -2 -39 47 c-22 27 -46 57 -55
68 -52 62 -143 173 -157 190 -9 11 -48 58 -86 105 -39 47 -77 93 -85 103 -14
17 -13 17 14 7 16 -6 71 -22 122 -35z m2148 -95 c0 -109 3 -104 -65 -115 -19
-3 -72 -21 -118 -39 -46 -19 -82 -30 -80 -26 3 9 119 138 195 219 29 31 53 60
53 65 0 5 3 6 7 2 4 -4 7 -52 8 -106z m-813 -202 c95 -99 175 -182 177 -184 2
-2 -126 -4 -285 -4 l-290 0 2 178 c2 97 3 180 3 183 1 4 50 7 111 7 l110 0
172 -180z m828 -66 l0 -98 -211 0 -212 0 34 29 c58 49 180 111 274 139 49 15
96 27 103 27 9 1 12 -25 12 -97z m-8 -161 c14 -2 8 -281 -5 -281 -7 0 -57 -7
-112 -15 -55 -9 -112 -16 -127 -17 -16 -1 -28 -4 -28 -7 0 -13 266 -271 273
-265 4 4 7 -10 7 -32 0 -30 -5 -41 -23 -50 -12 -6 -97 -58 -189 -116 -147 -93
-221 -128 -232 -109 -2 3 88 62 200 131 112 69 203 128 204 132 0 4 -63 70
-139 147 l-140 140 -32 -52 c-18 -29 -52 -81 -74 -117 -23 -36 -45 -72 -48
-80 -4 -8 -24 -41 -45 -72 -20 -32 -61 -96 -89 -142 -47 -75 -66 -92 -83 -76
-3 3 48 91 113 195 66 105 124 199 130 210 7 11 29 45 50 77 20 32 40 64 43
71 3 9 -36 55 -100 119 -59 58 -106 110 -106 116 0 34 32 14 117 -73 52 -53
96 -95 98 -93 4 4 11 46 26 166 11 80 15 92 32 92 17 0 18 -5 13 -47 -3 -27
-8 -57 -10 -69 -2 -12 -7 -45 -11 -74 -4 -29 -8 -62 -10 -72 -4 -18 0 -19 48
-13 79 10 229 34 233 38 2 2 -50 56 -115 120 -65 64 -117 118 -115 119 2 3
224 1 246 -1z m106 -26 c-5 -42 6 -46 20 -6 7 19 19 30 36 33 14 3 26 1 26 -5
0 -5 -16 -45 -36 -89 -20 -44 -34 -81 -32 -83 1 -1 66 37 143 85 130 82 206
113 208 85 0 -5 -50 -41 -111 -80 -61 -38 -119 -75 -129 -82 -10 -6 23 -1 72
13 50 13 100 27 113 30 12 3 22 4 22 1 0 -28 -135 -293 -173 -340 l-22 -27
-87 86 -88 87 0 158 c0 142 2 158 18 162 9 3 19 5 21 6 2 0 1 -15 -1 -34z
m1175 26 c15 -1 10 -11 -25 -53 -24 -29 -45 -55 -48 -58 -7 -6 -500 -594 -605
-720 -38 -47 -72 -87 -75 -90 -5 -4 -57 -66 -125 -148 -11 -14 -35 -41 -53
-61 l-32 -36 -96 99 c-52 54 -93 101 -90 103 3 3 31 10 62 17 32 6 59 16 61
22 2 7 -32 48 -77 93 -74 75 -89 101 -57 101 7 0 48 -36 92 -80 47 -48 82 -77
88 -71 5 5 11 26 13 47 7 55 24 175 30 202 5 23 3 23 -53 16 -32 -3 -62 -9
-68 -12 -5 -3 1 7 14 21 14 15 34 27 46 27 31 0 38 11 20 30 -14 15 -12 21 16
60 41 57 119 206 160 305 18 44 34 82 35 83 2 3 183 58 202 61 4 1 25 6 47 12
114 31 275 40 518 30z m592 -3 c3 -2 -3 -13 -13 -24 -10 -10 -55 -66 -102
-124 -46 -58 -87 -107 -90 -110 -3 -3 -24 -27 -45 -55 -22 -27 -44 -55 -50
-61 -5 -7 -65 -79 -132 -160 -67 -82 -242 -295 -389 -474 -146 -179 -296 -362
-333 -407 -36 -45 -69 -82 -72 -83 -5 0 -105 100 -224 224 -57 59 -57 61 -34
87 12 13 38 44 58 69 20 24 43 51 51 60 8 9 26 30 39 46 13 16 36 43 50 60 14
16 44 52 66 79 52 62 112 133 139 165 12 14 102 122 201 240 99 118 190 226
201 240 12 14 62 72 111 130 l89 105 237 -1 c131 0 239 -3 242 -6z m-3164 -33
c6 -35 3 -615 -3 -615 -5 0 -55 57 -105 120 -10 12 -246 300 -345 420 -11 14
-30 35 -40 47 -11 12 -18 25 -15 30 8 12 507 10 508 -2z m663 4 c3 -2 -19 -29
-47 -60 -29 -30 -61 -66 -72 -79 -20 -23 -20 -23 0 -16 17 6 16 4 -5 -21 -83
-93 -135 -142 -140 -132 -4 6 -18 -4 -32 -23 -15 -18 -46 -54 -70 -79 -88 -94
-203 -222 -206 -230 -2 -5 -8 -9 -13 -9 -6 0 -8 130 -7 325 3 316 4 324 23
327 31 5 565 2 569 -3z m-24 -204 c-9 -42 -12 -53 -40 -210 -77 -431 -73 -415
-94 -415 -29 0 -149 37 -264 82 -75 29 -100 43 -95 53 5 7 60 68 123 135 63
68 122 130 130 140 85 98 242 262 246 257 2 -1 -1 -20 -6 -42z m795 -384 c-28
-28 -75 -35 -75 -12 0 25 4 27 52 29 43 3 43 3 23 -17z m-1262 -200 c68 -29
215 -78 280 -93 61 -14 63 -16 48 -81 -13 -54 0 -52 34 4 17 29 36 49 47 49
24 0 23 -3 -19 -71 -20 -33 -34 -62 -31 -65 3 -3 50 22 104 56 72 44 107 60
134 60 l35 0 -35 -22 c-132 -83 -202 -130 -198 -133 2 -3 134 20 294 50 159
30 322 61 362 69 l72 13 0 -86 0 -86 -47 -50 c-25 -27 -100 -107 -167 -176
-67 -69 -152 -158 -190 -198 -38 -39 -72 -70 -76 -69 -12 5 -390 465 -390 475
0 5 14 22 30 38 35 34 35 33 10 63 l-20 24 -33 -37 -33 -36 -35 39 c-19 21
-43 49 -54 63 -166 202 -179 219 -172 219 3 0 25 -9 50 -19z m1209 -210 c2 -5
66 -76 143 -158 232 -245 261 -276 309 -328 25 -27 46 -52 46 -55 0 -3 -13
-21 -30 -40 l-30 -35 -32 35 c-18 20 -67 73 -108 119 -41 46 -84 94 -95 107
-25 27 -61 68 -149 167 -69 77 -69 79 -71 137 -1 53 7 77 17 51z m-85 -717 c1
-270 -3 -474 -8 -472 -4 2 -86 98 -180 213 -94 116 -174 212 -178 215 -4 3
-20 22 -36 43 l-28 38 40 42 c181 189 268 281 318 335 32 34 61 62 64 62 4 0
7 -214 8 -476z m169 376 c32 -36 98 -108 145 -160 47 -52 102 -114 122 -136
l37 -41 -23 -29 c-12 -16 -30 -38 -39 -49 -9 -11 -86 -104 -170 -206 -84 -103
-157 -186 -163 -185 -9 1 -16 881 -7 900 5 9 8 5 98 -94z m-168 -4644 l0 -86
-667 1 c-605 1 -663 2 -631 16 40 17 235 69 295 78 131 20 238 35 294 40 115
12 144 14 271 21 69 3 126 7 127 8 1 0 71 2 156 4 l155 3 0 -85z m106 44 c-15
-22 -30 -38 -34 -35 -6 3 -7 60 -1 73 0 1 15 2 31 2 l30 0 -26 -40z m431 25
c39 -3 97 -8 130 -11 33 -4 74 -7 90 -9 208 -16 526 -79 635 -126 55 -23 92
-62 83 -85 -7 -19 -110 -67 -198 -92 -75 -22 -254 -57 -345 -67 -30 -4 -66 -8
-80 -10 -14 -2 -43 -6 -65 -9 -22 -3 -76 -8 -120 -11 -44 -3 -105 -8 -135 -10
-142 -12 -616 -23 -624 -14 -3 3 13 32 36 64 51 75 125 182 208 303 l64 93
126 -6 c69 -3 157 -8 195 -10z m-580 -227 c3 -3 -27 -53 -67 -112 l-73 -106
-135 6 c-74 3 -155 7 -180 9 -25 2 -79 7 -120 10 -41 3 -91 7 -110 10 -19 3
-73 10 -119 15 -118 15 -314 55 -391 81 -78 25 -160 68 -160 83 0 8 194 11
675 10 371 0 678 -3 680 -6z"/>
<path d="M5068 6603 c7 -3 16 -2 19 1 4 3 -2 6 -13 5 -11 0 -14 -3 -6 -6z"/>
<path d="M6630 8636 c0 -2 7 -20 15 -40 21 -50 49 -49 63 4 l10 40 -44 0 c-24
0 -44 -2 -44 -4z"/>
<path d="M6751 8594 c-6 -21 -11 -43 -11 -47 0 -5 57 -66 128 -136 l127 -127
43 9 c23 6 42 13 42 16 0 3 -72 78 -159 165 l-159 159 -11 -39z"/>
<path d="M7038 8248 c-38 -13 -35 -36 8 -54 20 -8 38 -13 40 -11 2 2 6 20 8
40 6 41 -3 45 -56 25z"/>
</g>
</svg>
