<?xml version="1.0" encoding="utf-8"?>
<!-- Generator: Adobe Illustrator 27.5.0, SVG Export Plug-In . SVG Version: 6.00 Build 0)  -->
<svg version="1.1" id="Capa_1" xmlns="http://www.w3.org/2000/svg" xmlns:xlink="http://www.w3.org/1999/xlink" x="0px" y="0px"
	 viewBox="0 0 800 800" style="enable-background:new 0 0 800 800;" xml:space="preserve">
<style type="text/css">
	.st0{fill:#FFFFFF;}
</style>
<path class="st0" d="M726.4,108.9c-2.1-6.2-8-10.4-14.5-10.4H569.1l43-75.6c4.2-7.4,1.6-16.8-5.8-21c-7.4-4.2-16.8-1.6-21,5.8
	l-51.7,90.8H88.1c-6.6,0-12.4,4.2-14.5,10.4c-2.1,6.2-0.1,13.1,5.1,17.1l305.9,238.4v346.9L216,770.1c-7.1,2.5-11.4,9.7-10.1,17.1
	c1.3,7.4,7.7,12.8,15.2,12.8h357.9c0,0,0.1,0,0.1,0c8.5,0,15.4-6.9,15.4-15.4c0-7.1-4.7-13-11.2-14.8l-167.8-58.5V364.4l305.9-238.4
	C726.5,122,728.6,115.2,726.4,108.9z M196.1,178.6l-63.2-49.2h383.3l-28,49.3L196.1,178.6L196.1,178.6z M603.9,178.6h-80.4l28-49.3
	h115.5L603.9,178.6z"/>
</svg>
